<svg xmlns="http://www.w3.org/2000/svg" xmlns:xlink="http://www.w3.org/1999/xlink" width="500" zoomAndPan="magnify" viewBox="0 0 375 374.999991" height="500" preserveAspectRatio="xMidYMid meet" version="1.0"><defs><g/><clipPath id="01c01f9011"><path d="M 211.46875 223.992188 L 345.488281 223.992188 L 345.488281 280.242188 L 211.46875 280.242188 Z M 211.46875 223.992188 " clip-rule="nonzero"/></clipPath></defs><g clip-path="url(#01c01f9011)"><path fill="#900020" d="M 345.488281 223.992188 L 345.488281 280.242188 L 211.453125 280.242188 L 211.453125 223.992188 Z M 345.488281 223.992188 " fill-opacity="1" fill-rule="nonzero"/></g><g fill="#2b2b2b" fill-opacity="1"><g transform="translate(5.523489, 208.699971)"><g><path d="M 13.40625 0 L 1.265625 -98.578125 L 20.0625 -98.578125 L 27.28125 -31.515625 L 33.703125 -98.578125 L 52.5 -98.578125 L 40.34375 0 Z M 13.40625 0 "/></g></g></g><g fill="#2b2b2b" fill-opacity="1"><g transform="translate(55.383523, 208.699971)"><g><path d="M 4.359375 0 L 4.359375 -98.46875 L 43.78125 -98.46875 L 43.78125 -79.4375 L 24.421875 -79.4375 L 24.421875 -60.296875 L 42.984375 -60.296875 L 42.984375 -41.71875 L 24.421875 -41.71875 L 24.421875 -19.140625 L 45.046875 -19.140625 L 45.046875 0 Z M 4.359375 0 "/></g></g></g><g fill="#2b2b2b" fill-opacity="1"><g transform="translate(98.710148, 208.699971)"><g><path d="M 4.359375 0 L 4.359375 -98.46875 L 24.640625 -98.46875 L 33.703125 -51.359375 L 33.703125 -98.46875 L 52.734375 -98.46875 L 52.734375 0 L 33.46875 0 L 23.609375 -49.28125 L 23.609375 0 Z M 4.359375 0 "/></g></g></g><g fill="#2b2b2b" fill-opacity="1"><g transform="translate(151.894192, 208.699971)"><g><path d="M 12.84375 0 L 12.84375 -79.546875 L 1.140625 -79.546875 L 1.140625 -98.46875 L 44.25 -98.46875 L 44.25 -79.546875 L 32.546875 -79.546875 L 32.546875 0 Z M 12.84375 0 "/></g></g></g><g fill="#2b2b2b" fill-opacity="1"><g transform="translate(193.386873, 208.699971)"><g><path d="M 27.171875 0.921875 C 19.066406 0.921875 13.046875 -1.367188 9.109375 -5.953125 C 5.171875 -10.546875 3.203125 -17.347656 3.203125 -26.359375 L 3.203125 -98.46875 L 22.359375 -98.46875 L 22.359375 -27.171875 C 22.359375 -24.035156 22.660156 -21.585938 23.265625 -19.828125 C 23.878906 -18.066406 25.179688 -17.1875 27.171875 -17.1875 C 29.148438 -17.1875 30.445312 -18.046875 31.0625 -19.765625 C 31.675781 -21.492188 31.984375 -23.960938 31.984375 -27.171875 L 31.984375 -98.46875 L 51.125 -98.46875 L 51.125 -26.359375 C 51.125 -17.347656 49.15625 -10.546875 45.21875 -5.953125 C 41.28125 -1.367188 35.265625 0.921875 27.171875 0.921875 Z M 27.171875 0.921875 "/></g></g></g><g fill="#2b2b2b" fill-opacity="1"><g transform="translate(243.820021, 208.699971)"><g><path d="M 4.359375 -98.46875 L 34.609375 -98.46875 C 39.429688 -98.46875 43.160156 -97.375 45.796875 -95.1875 C 48.429688 -93.007812 50.207031 -89.953125 51.125 -86.015625 C 52.039062 -82.085938 52.5 -77.066406 52.5 -70.953125 C 52.5 -65.367188 51.769531 -61.007812 50.3125 -57.875 C 48.863281 -54.75 46.34375 -52.578125 42.75 -51.359375 C 45.726562 -50.742188 47.882812 -49.25 49.21875 -46.875 C 50.5625 -44.507812 51.234375 -41.300781 51.234375 -37.25 L 51.015625 0 L 31.75 0 L 31.75 -38.515625 C 31.75 -41.265625 31.210938 -43.019531 30.140625 -43.78125 C 29.078125 -44.550781 27.128906 -44.9375 24.296875 -44.9375 L 24.296875 0 L 4.359375 0 Z M 29.109375 -62.015625 C 31.859375 -62.015625 33.234375 -64.992188 33.234375 -70.953125 C 33.234375 -73.546875 33.117188 -75.492188 32.890625 -76.796875 C 32.660156 -78.097656 32.238281 -78.992188 31.625 -79.484375 C 31.019531 -79.984375 30.144531 -80.234375 29 -80.234375 L 24.421875 -80.234375 L 24.421875 -62.015625 Z M 29.109375 -62.015625 "/></g></g></g><g fill="#2b2b2b" fill-opacity="1"><g transform="translate(294.597018, 208.699971)"><g><path d="M 4.359375 0 L 4.359375 -98.46875 L 43.78125 -98.46875 L 43.78125 -79.4375 L 24.421875 -79.4375 L 24.421875 -60.296875 L 42.984375 -60.296875 L 42.984375 -41.71875 L 24.421875 -41.71875 L 24.421875 -19.140625 L 45.046875 -19.140625 L 45.046875 0 Z M 4.359375 0 "/></g></g></g><g fill="#ffffff" fill-opacity="1"><g transform="translate(230.134676, 265.992009)"><g><path d="M 3.5625 0 L 0.4375 -29.203125 L 6.15625 -29.203125 L 7.78125 -10.78125 L 9.421875 -29.203125 L 14.859375 -29.203125 L 16.421875 -10.78125 L 17.984375 -29.203125 L 23.765625 -29.203125 L 20.5625 0 L 13.5625 0 L 12.109375 -14.078125 L 10.703125 0 Z M 3.5625 0 "/></g></g></g><g fill="#ffffff" fill-opacity="1"><g transform="translate(258.011867, 265.992009)"><g><path d="M 8.265625 0.265625 C 5.898438 0.265625 4.101562 -0.453125 2.875 -1.890625 C 1.65625 -3.328125 1.046875 -5.347656 1.046875 -7.953125 L 1.046875 -21.859375 C 1.046875 -24.378906 1.65625 -26.28125 2.875 -27.5625 C 4.101562 -28.84375 5.898438 -29.484375 8.265625 -29.484375 C 10.617188 -29.484375 12.40625 -28.84375 13.625 -27.5625 C 14.851562 -26.28125 15.46875 -24.378906 15.46875 -21.859375 L 15.46875 -7.953125 C 15.46875 -5.328125 14.851562 -3.300781 13.625 -1.875 C 12.40625 -0.445312 10.617188 0.265625 8.265625 0.265625 Z M 8.265625 -5.09375 C 8.785156 -5.09375 9.132812 -5.316406 9.3125 -5.765625 C 9.5 -6.222656 9.59375 -6.863281 9.59375 -7.6875 L 9.59375 -21.96875 C 9.59375 -22.601562 9.503906 -23.117188 9.328125 -23.515625 C 9.160156 -23.910156 8.816406 -24.109375 8.296875 -24.109375 C 7.316406 -24.109375 6.828125 -23.367188 6.828125 -21.890625 L 6.828125 -7.65625 C 6.828125 -6.8125 6.929688 -6.171875 7.140625 -5.734375 C 7.347656 -5.304688 7.722656 -5.09375 8.265625 -5.09375 Z M 8.265625 -5.09375 "/></g></g></g><g fill="#ffffff" fill-opacity="1"><g transform="translate(278.205941, 265.992009)"><g><path d="M 1.296875 -29.203125 L 10.265625 -29.203125 C 11.691406 -29.203125 12.796875 -28.878906 13.578125 -28.234375 C 14.359375 -27.585938 14.882812 -26.679688 15.15625 -25.515625 C 15.4375 -24.347656 15.578125 -22.859375 15.578125 -21.046875 C 15.578125 -19.390625 15.359375 -18.097656 14.921875 -17.171875 C 14.492188 -16.242188 13.75 -15.597656 12.6875 -15.234375 C 13.570312 -15.046875 14.210938 -14.601562 14.609375 -13.90625 C 15.003906 -13.207031 15.203125 -12.253906 15.203125 -11.046875 L 15.125 0 L 9.421875 0 L 9.421875 -11.421875 C 9.421875 -12.234375 9.257812 -12.753906 8.9375 -12.984375 C 8.625 -13.210938 8.046875 -13.328125 7.203125 -13.328125 L 7.203125 0 L 1.296875 0 Z M 8.640625 -18.390625 C 9.453125 -18.390625 9.859375 -19.273438 9.859375 -21.046875 C 9.859375 -21.816406 9.820312 -22.394531 9.75 -22.78125 C 9.6875 -23.164062 9.5625 -23.429688 9.375 -23.578125 C 9.195312 -23.722656 8.941406 -23.796875 8.609375 -23.796875 L 7.234375 -23.796875 L 7.234375 -18.390625 Z M 8.640625 -18.390625 "/></g></g></g><g fill="#ffffff" fill-opacity="1"><g transform="translate(298.094049, 265.992009)"><g><path d="M 1.296875 0 L 1.296875 -29.203125 L 7.078125 -29.203125 L 7.078125 -17.515625 L 9.796875 -29.203125 L 15.671875 -29.203125 L 12.40625 -15.84375 L 16.359375 0 L 10.296875 0 L 7.109375 -14.140625 L 7.109375 0 Z M 1.296875 0 "/></g></g></g><g fill="#ffffff" fill-opacity="1"><g transform="translate(317.812172, 265.992009)"><g><path d="M 8.234375 0.265625 C 5.578125 0.265625 3.660156 -0.390625 2.484375 -1.703125 C 1.304688 -3.015625 0.71875 -5.132812 0.71875 -8.0625 L 0.71875 -10.90625 L 6.453125 -10.90625 L 6.453125 -7.28125 C 6.453125 -5.820312 6.921875 -5.09375 7.859375 -5.09375 C 8.378906 -5.09375 8.738281 -5.242188 8.9375 -5.546875 C 9.144531 -5.859375 9.25 -6.378906 9.25 -7.109375 C 9.25 -8.054688 9.132812 -8.84375 8.90625 -9.46875 C 8.675781 -10.09375 8.382812 -10.613281 8.03125 -11.03125 C 7.6875 -11.445312 7.0625 -12.097656 6.15625 -12.984375 L 3.640625 -15.5 C 1.691406 -17.40625 0.71875 -19.515625 0.71875 -21.828125 C 0.71875 -24.316406 1.285156 -26.210938 2.421875 -27.515625 C 3.566406 -28.828125 5.242188 -29.484375 7.453125 -29.484375 C 10.078125 -29.484375 11.96875 -28.785156 13.125 -27.390625 C 14.28125 -25.992188 14.859375 -23.8125 14.859375 -20.84375 L 8.90625 -20.84375 L 8.875 -22.84375 C 8.875 -23.226562 8.765625 -23.535156 8.546875 -23.765625 C 8.335938 -23.992188 8.039062 -24.109375 7.65625 -24.109375 C 7.195312 -24.109375 6.851562 -23.984375 6.625 -23.734375 C 6.40625 -23.484375 6.296875 -23.144531 6.296875 -22.71875 C 6.296875 -21.757812 6.835938 -20.769531 7.921875 -19.75 L 11.328125 -16.484375 C 12.117188 -15.710938 12.773438 -14.984375 13.296875 -14.296875 C 13.816406 -13.609375 14.234375 -12.789062 14.546875 -11.84375 C 14.867188 -10.90625 15.03125 -9.789062 15.03125 -8.5 C 15.03125 -5.625 14.5 -3.441406 13.4375 -1.953125 C 12.382812 -0.472656 10.648438 0.265625 8.234375 0.265625 Z M 8.234375 0.265625 "/></g></g></g><g fill="#900020" fill-opacity="1"><g transform="translate(341.233283, 208.3136)"><g><path d="M 15.65625 -19.265625 C 18.539062 -19.265625 20.988281 -18.257812 23 -16.25 C 25.007812 -14.238281 26.015625 -11.789062 26.015625 -8.90625 C 26.015625 -6.09375 25.007812 -3.679688 23 -1.671875 C 20.988281 0.335938 18.539062 1.34375 15.65625 1.34375 C 12.84375 1.34375 10.429688 0.335938 8.421875 -1.671875 C 6.410156 -3.679688 5.40625 -6.09375 5.40625 -8.90625 C 5.40625 -11.789062 6.410156 -14.238281 8.421875 -16.25 C 10.429688 -18.257812 12.84375 -19.265625 15.65625 -19.265625 Z M 15.65625 -19.265625 "/></g></g></g></svg>