<svg xmlns="http://www.w3.org/2000/svg" xmlns:xlink="http://www.w3.org/1999/xlink" width="500" zoomAndPan="magnify" viewBox="0 0 375 374.999991" height="500" preserveAspectRatio="xMidYMid meet" version="1.0"><defs><g/></defs><rect x="-37.5" width="450" fill="#ffffff" y="-37.499999" height="449.999989" fill-opacity="1"/><rect x="-37.5" width="450" fill="#ffffff" y="-37.499999" height="449.999989" fill-opacity="1"/><g fill="#2b2b2b" fill-opacity="1"><g transform="translate(160.614144, 230.039186)"><g><path d="M 13.40625 0 L 1.265625 -98.578125 L 20.0625 -98.578125 L 27.28125 -31.515625 L 33.703125 -98.578125 L 52.5 -98.578125 L 40.34375 0 Z M 13.40625 0 "/></g></g></g><g fill="#900020" fill-opacity="1"><g transform="translate(204.903522, 229.652812)"><g><path d="M 15.65625 -19.265625 C 18.539062 -19.265625 20.988281 -18.257812 23 -16.25 C 25.007812 -14.238281 26.015625 -11.789062 26.015625 -8.90625 C 26.015625 -6.09375 25.007812 -3.679688 23 -1.671875 C 20.988281 0.335938 18.539062 1.34375 15.65625 1.34375 C 12.84375 1.34375 10.429688 0.335938 8.421875 -1.671875 C 6.410156 -3.679688 5.40625 -6.09375 5.40625 -8.90625 C 5.40625 -11.789062 6.410156 -14.238281 8.421875 -16.25 C 10.429688 -18.257812 12.84375 -19.265625 15.65625 -19.265625 Z M 15.65625 -19.265625 "/></g></g></g></svg>